<svg id="infobox" data-name="infobox" xmlns="http://www.w3.org/2000/svg" xmlns:xlink="http://www.w3.org/1999/xlink" viewBox="0 0 840 306"><defs><style>.cls-1{fill:#dff3ff;}.cls-2,.cls-20,.cls-27{font-size:36px;}.cls-11,.cls-2,.cls-20{font-family:FootlightMTLight;}.cls-3{letter-spacing:0em;}.cls-4{letter-spacing:0.03em;}.cls-5{letter-spacing:0em;}.cls-6{letter-spacing:-0.02em;}.cls-7{letter-spacing:-0.01em;}.cls-8{letter-spacing:-0.02em;}.cls-9{letter-spacing:0.01em;}.cls-10{letter-spacing:0.02em;}.cls-11,.cls-21,.cls-22{font-size:18px;}.cls-11,.cls-22{fill:gray;}.cls-12{letter-spacing:0.02em;}.cls-13{letter-spacing:0em;}.cls-14{letter-spacing:-0.03em;}.cls-15{letter-spacing:-0.01em;}.cls-16{letter-spacing:0em;}.cls-17{letter-spacing:0.01em;}.cls-18{letter-spacing:0em;}.cls-19{letter-spacing:0.02em;}.cls-20{fill:#999;}.cls-21{fill:#b3b3b3;}.cls-21,.cls-22,.cls-27{font-family:Gadugi;}.cls-23{letter-spacing:-0.01em;}.cls-24{letter-spacing:0.01em;}.cls-25{letter-spacing:-0.01em;}.cls-26{letter-spacing:-0.01em;}.cls-28{letter-spacing:0em;}.cls-29{letter-spacing:-0.01em;}.cls-30{letter-spacing:0em;}.cls-31{letter-spacing:-0.01em;}.cls-32{letter-spacing:-0.01em;}.cls-33{letter-spacing:0.01em;}.cls-34{letter-spacing:-0.01em;}.cls-35{letter-spacing:0.01em;}</style></defs><g id="infobox_template"><rect class="cls-1" x="2" y="2" width="836" height="302"/><path d="M836,4V302H4V4H836m4-4H0V306H840V0Z"/><text class="cls-2" transform="translate(213.78 45.1)">Ha<tspan class="cls-3" x="40.82" y="0">r</tspan><tspan class="cls-4" x="52.74" y="0">r</tspan><tspan class="cls-5" x="65.41" y="0">y </tspan><tspan class="cls-6" x="90" y="0">P</tspan><tspan x="108.25" y="0">ot</tspan><tspan class="cls-7" x="139.93" y="0">t</tspan><tspan x="151.63" y="0">er and the </tspan><tspan class="cls-8" x="311.9" y="0">P</tspan><tspan class="cls-3" x="330.48" y="0">r</tspan><tspan class="cls-5" x="342.39" y="0">isoner of </tspan><tspan class="cls-9" x="480.16" y="0">A</tspan><tspan x="502.7" y="0">z</tspan><tspan class="cls-10" x="518.1" y="0">k</tspan><tspan x="535.64" y="0">aban</tspan></text><text class="cls-11" transform="translate(213.78 69.1)">Ha<tspan class="cls-3" x="20.41" y="0">r</tspan><tspan class="cls-12" x="26.37" y="0">r</tspan><tspan class="cls-13" x="32.71" y="0">y </tspan><tspan class="cls-14" x="45" y="0">P</tspan><tspan x="54.13" y="0">ot</tspan><tspan class="cls-15" x="69.96" y="0">t</tspan><tspan x="75.82" y="0">er og fangen f</tspan><tspan class="cls-16" x="180.36" y="0">r</tspan><tspan x="186.15" y="0">a </tspan><tspan class="cls-17" x="198.64" y="0">A</tspan><tspan class="cls-18" x="209.91" y="0">z</tspan><tspan class="cls-19" x="217.62" y="0">k</tspan><tspan x="226.38" y="0">aban</tspan></text><text class="cls-20" transform="translate(726.78 79.1)">2004</text><text class="cls-21" transform="translate(213.78 118.1)">2h 22min</text><text class="cls-22" transform="translate(213.78 158.1)">Di<tspan class="cls-23" x="16.2" y="0">r</tspan><tspan class="cls-13" x="21.91" y="0">e</tspan><tspan class="cls-24" x="30.92" y="0">c</tspan><tspan class="cls-25" x="39.22" y="0">t</tspan><tspan x="45.07" y="0">ed </tspan><tspan class="cls-26" x="68.06" y="0">b</tspan><tspan x="78.17" y="0">y</tspan></text><text class="cls-27" transform="translate(213.78 199.1)"><tspan class="cls-28">A</tspan><tspan class="cls-5" x="21.92" y="0">l</tspan><tspan class="cls-29" x="30.42" y="0">f</tspan><tspan class="cls-30" x="40.46" y="0">onso </tspan><tspan class="cls-31" x="121.86" y="0">C</tspan><tspan x="142.31" y="0">ua</tspan><tspan class="cls-32" x="179.5" y="0">r</tspan><tspan class="cls-30" x="190.91" y="0">ón</tspan></text><text class="cls-22" transform="translate(213.78 244.1)"><tspan class="cls-33">S</tspan><tspan x="8.98" y="0">c</tspan><tspan class="cls-23" x="17.05" y="0">r</tspan><tspan x="22.75" y="0">eenpl</tspan><tspan class="cls-34" x="65.27" y="0">a</tspan><tspan class="cls-13" x="73.8" y="0">y </tspan><tspan class="cls-26" x="86.09" y="0">b</tspan><tspan x="96.21" y="0">y</tspan></text><text class="cls-27" transform="translate(213.78 278.1)"><tspan class="cls-28">S</tspan><tspan class="cls-25" x="17.64" y="0">t</tspan><tspan x="29.34" y="0">e</tspan><tspan class="cls-32" x="47.38" y="0">v</tspan><tspan x="64.33" y="0">e </tspan><tspan class="cls-35" x="90" y="0">K</tspan><tspan x="109.87" y="0">l</tspan><tspan class="cls-26" x="118.37" y="0">o</tspan><tspan class="cls-23" x="137.88" y="0">v</tspan><tspan x="154.83" y="0">es</tspan></text><image id="poster" width="683" height="1024" transform="translate(21 16) scale(0.27)" xlink:href="../timeline/images/azkaban.jpg"/></g></svg>