<?xml version="1.0" encoding="utf-8"?>
<!-- Generator: Adobe Illustrator 24.1.0, SVG Export Plug-In . SVG Version: 6.00 Build 0)  -->
<svg version="1.1" id="thetimeline" xmlns="http://www.w3.org/2000/svg" xmlns:xlink="http://www.w3.org/1999/xlink" x="0px" y="0px"
	 viewBox="0 0 1920 1080" style="enable-background:new 0 0 1920 1080;" xml:space="preserve">
<style type="text/css">
	.Graphic_x0020_Style{fill:#DFF3FF;stroke:#000000;stroke-width:4;stroke-miterlimit:10;}
	.bullet{fill:#FCF6E8;stroke:#000000;stroke-width:8;stroke-miterlimit:10;}
	.st0{fill:none;stroke:#000000;stroke-width:4;stroke-miterlimit:10;}
	.st1{fill:none;stroke:#000000;stroke-width:5;stroke-miterlimit:10;}
	.st2{fill:#DFF3FF;}
</style>
<g id="timeline_infoboxes">
	<g id="infoline">
		<line class="st0" x1="391" y1="712" x2="445" y2="507"/>
		<!-- <use href="#theinfobox" x="450" y="180" width="600" height="450"></use> -->
	</g>
</g>
<path id="timeline" class="st1" d="M57.5,933.5c0,0,564.6-464.1,898-353c135,45,176,86,336,243c193.3,189.7,287,83,346,23
	c60-61,109-114,155-140s111-27,111-27"/>
<g id="infobox_timeline_template">
</g>
<g id="bullets">
	<g>
		<circle class="st2" cx="174.1" cy="846.8" r="26.6"/>
		<circle class="st2" cx="391.1" cy="711.8" r="26.6"/>
		<circle class="st2" cx="625.1" cy="600.8" r="26.6"/>
		<circle class="st2" cx="849.1" cy="562.8" r="26.6"/>
		<circle class="st2" cx="1090.1" cy="639.8" r="26.6"/>
		<circle class="st2" cx="1271.1" cy="799.8" r="26.6"/>
		<circle class="st2" cx="1480.1" cy="926.8" r="26.6"/>
		<circle class="st2" cx="1703.1" cy="781.8" r="26.6"/>
	</g>
	<g>
		<circle class="bullet" cx="174.1" cy="846.8" r="26.6"/>
		<circle class="bullet" cx="391.1" cy="711.8" r="26.6"/>
		<circle class="bullet" cx="625.1" cy="600.8" r="26.6"/>
		<circle class="bullet" cx="849.1" cy="562.8" r="26.6"/>
		<circle class="bullet" cx="1090.1" cy="639.8" r="26.6"/>
		<circle class="bullet" cx="1271.1" cy="799.8" r="26.6"/>
		<circle class="bullet" cx="1480.1" cy="926.8" r="26.6"/>
		<circle class="bullet" cx="1703.1" cy="781.8" r="26.6"/>
	</g>
	<g>
		<path d="M174.1,824.2c12.5,0,22.6,10.1,22.6,22.6s-10.1,22.6-22.6,22.6s-22.6-10.1-22.6-22.6S161.6,824.2,174.1,824.2
			 M174.1,820.2c-14.7,0-26.6,11.9-26.6,26.6c0,14.7,11.9,26.6,26.6,26.6s26.6-11.9,26.6-26.6C200.6,832.1,188.7,820.2,174.1,820.2
			L174.1,820.2z"/>
		<path d="M391.1,689.2c12.5,0,22.6,10.1,22.6,22.6s-10.1,22.6-22.6,22.6s-22.6-10.1-22.6-22.6S378.6,689.2,391.1,689.2
			 M391.1,685.2c-14.7,0-26.6,11.9-26.6,26.6c0,14.7,11.9,26.6,26.6,26.6c14.7,0,26.6-11.9,26.6-26.6
			C417.6,697.1,405.7,685.2,391.1,685.2L391.1,685.2z"/>
		<path d="M625.1,578.2c12.5,0,22.6,10.1,22.6,22.6s-10.1,22.6-22.6,22.6s-22.6-10.1-22.6-22.6S612.6,578.2,625.1,578.2
			 M625.1,574.2c-14.7,0-26.6,11.9-26.6,26.6c0,14.7,11.9,26.6,26.6,26.6s26.6-11.9,26.6-26.6C651.6,586.1,639.7,574.2,625.1,574.2
			L625.1,574.2z"/>
		<path d="M849.1,540.2c12.5,0,22.6,10.1,22.6,22.6s-10.1,22.6-22.6,22.6s-22.6-10.1-22.6-22.6S836.6,540.2,849.1,540.2
			 M849.1,536.2c-14.7,0-26.6,11.9-26.6,26.6c0,14.7,11.9,26.6,26.6,26.6s26.6-11.9,26.6-26.6C875.6,548.1,863.7,536.2,849.1,536.2
			L849.1,536.2z"/>
		<path d="M1090.1,617.2c12.5,0,22.6,10.1,22.6,22.6s-10.1,22.6-22.6,22.6s-22.6-10.1-22.6-22.6S1077.6,617.2,1090.1,617.2
			 M1090.1,613.2c-14.7,0-26.6,11.9-26.6,26.6c0,14.7,11.9,26.6,26.6,26.6s26.6-11.9,26.6-26.6
			C1116.6,625.1,1104.7,613.2,1090.1,613.2L1090.1,613.2z"/>
		<path d="M1271.1,777.2c12.5,0,22.6,10.1,22.6,22.6s-10.1,22.6-22.6,22.6s-22.6-10.1-22.6-22.6S1258.6,777.2,1271.1,777.2
			 M1271.1,773.2c-14.7,0-26.6,11.9-26.6,26.6c0,14.7,11.9,26.6,26.6,26.6s26.6-11.9,26.6-26.6
			C1297.6,785.1,1285.7,773.2,1271.1,773.2L1271.1,773.2z"/>
		<path d="M1480.1,904.2c12.5,0,22.6,10.1,22.6,22.6s-10.1,22.6-22.6,22.6s-22.6-10.1-22.6-22.6S1467.6,904.2,1480.1,904.2
			 M1480.1,900.2c-14.7,0-26.6,11.9-26.6,26.6c0,14.7,11.9,26.6,26.6,26.6s26.6-11.9,26.6-26.6
			C1506.6,912.1,1494.7,900.2,1480.1,900.2L1480.1,900.2z"/>
		<path d="M1703.1,759.2c12.5,0,22.6,10.1,22.6,22.6s-10.1,22.6-22.6,22.6s-22.6-10.1-22.6-22.6S1690.6,759.2,1703.1,759.2
			 M1703.1,755.2c-14.7,0-26.6,11.9-26.6,26.6c0,14.7,11.9,26.6,26.6,26.6s26.6-11.9,26.6-26.6
			C1729.6,767.1,1717.7,755.2,1703.1,755.2L1703.1,755.2z"/>
	</g>
</g>
</svg>
